<svg width="18" height="20" viewBox="0 0 18 20" fill="none" xmlns="http://www.w3.org/2000/svg">
<g clip-path="url(#clip0_207_289)">
<path d="M17.294 9.42387L12.1088 4.23868C12.0128 4.11065 11.8907 4.01663 11.7427 3.95661C11.5947 3.8966 11.4406 3.8846 11.2806 3.92061C11.1206 3.95661 10.9845 4.03063 10.8725 4.14266C10.7605 4.25468 10.6865 4.39071 10.6505 4.55075C10.6145 4.71079 10.6265 4.86482 10.6865 5.01286C10.7465 5.16089 10.8405 5.28292 10.9685 5.37894L14.7734 9.18381H0.910229C0.702181 9.20782 0.530141 9.29784 0.39411 9.45387C0.258079 9.60991 0.190063 9.78995 0.190063 9.994C0.190063 10.198 0.258079 10.3781 0.39411 10.5341C0.530141 10.6902 0.702181 10.7802 0.910229 10.8042H14.7734L10.9565 14.6211C10.8285 14.7811 10.7705 14.9651 10.7825 15.1732C10.7945 15.3812 10.8745 15.5573 11.0225 15.7013C11.1706 15.8453 11.3486 15.9234 11.5567 15.9354C11.7647 15.9474 11.9488 15.8894 12.1088 15.7613L17.306 10.5761C17.466 10.4161 17.544 10.2241 17.54 10C17.536 9.77595 17.454 9.5839 17.294 9.42387Z" fill="#181818"/>
</g>
<defs>
<clipPath id="clip0_207_289">
<rect width="17.44" height="20" fill="white" transform="matrix(1 0 0 -1 0.190063 20)"/>
</clipPath>
</defs>
</svg>
