<svg width="255" height="45" viewBox="0 0 255 45" fill="none" xmlns="http://www.w3.org/2000/svg">
<path d="M28.7976 28.2508C28.0059 28.2508 27.1946 28.255 26.3819 28.2508C23.1577 28.234 19.932 28.2213 16.7078 28.1919C15.7632 28.1834 15.1933 27.5841 15.2185 26.6998C15.2438 25.8141 15.8446 25.3031 16.8005 25.3284C18.2785 25.3677 19.758 25.4084 21.236 25.4238C26.97 25.4828 32.704 25.5698 38.4379 25.5684C40.5518 25.5684 42.0734 26.5285 43.2567 28.1526C43.9936 29.1646 44.2687 30.3156 43.8168 31.5565C43.2132 33.2184 40.914 34.9196 39.1552 34.9547C37.4371 34.9884 35.719 34.9449 34.001 34.9716C33.4563 34.98 33.3328 34.7498 33.3412 34.2543C33.3637 32.9475 33.3483 31.6393 33.3483 30.3311C33.3483 29.6503 33.3483 28.9681 33.3483 28.2985H30.0665V38.9088C30.5311 38.9088 30.8736 38.913 31.2147 38.9088C34.1736 38.8639 37.1325 38.8471 40.09 38.7488C40.8592 38.7236 41.6776 38.5663 42.3752 38.2491C48.0221 35.6804 49.2967 28.0234 44.8007 23.7226C43.2974 22.2853 41.5569 21.4838 39.3882 21.502C31.6961 21.5666 24.0027 21.5315 16.3092 21.5231C15.0038 21.5217 13.9468 22.034 13.1046 23.0011C11.6659 24.6532 11.4413 27.6501 12.56 29.5422C12.7018 29.7808 12.8478 30.216 12.7355 30.376C11.8357 31.6547 11.8427 33.0892 11.9971 34.5294C12.1768 36.2012 13.4696 37.6778 14.4241 38.294C14.9336 38.6239 15.4614 38.826 20.596 38.9187C22.7885 38.958 24.4799 38.9538 25.2561 38.9495C26.7258 38.9425 27.9512 38.9229 28.8214 38.906C28.813 35.3562 28.8046 31.8063 28.7948 28.2564L28.7976 28.2508Z" fill="#58595B"/>
<path d="M0.214783 44.5374C2.93648 42.9021 5.65959 41.2669 8.38129 39.6316H48.8699C51.5804 41.2781 54.2909 42.9232 57 44.5697C38.0716 44.5584 19.1418 44.5472 0.213379 44.5374H0.214783Z" fill="#ED1E2E"/>
<path d="M28.587 0.609863L2.11252 24.6195C5.25672 24.2546 8.39952 23.8882 11.5437 23.5233L28.5856 8.14473L45.7931 23.5948L54.5856 24.6195L28.587 0.609863Z" fill="#ED1E2E"/>
<path d="M16.8679 31.5383C20.2858 31.4947 23.7023 31.4512 27.1202 31.4077V35.5373C23.67 35.5092 20.2198 35.4811 16.7682 35.4531C15.9906 35.3253 15.4038 34.5281 15.3631 33.6115C15.3182 32.5784 15.9779 31.6211 16.8664 31.5383H16.8679Z" fill="white"/>
<g clip-path="url(#clip0_456_279)">
<path d="M74.4179 35.2572C74.9573 36.0536 75.2339 37.0161 75.205 37.9958C75.2336 38.6664 75.1111 39.3345 74.8476 39.9449C74.5842 40.5554 74.1873 41.0906 73.6898 41.5062C72.6792 42.3527 71.2889 42.7757 69.5188 42.7755H63.4567C63.2624 42.7874 63.0679 42.7583 62.8844 42.6899C62.7009 42.6215 62.532 42.5152 62.3876 42.3771C62.2535 42.2289 62.1498 42.0528 62.0831 41.8599C62.0164 41.6671 61.988 41.4618 61.9999 41.2568V26.7431C61.9882 26.5381 62.0166 26.3328 62.0833 26.14C62.15 25.9473 62.2536 25.7712 62.3876 25.6228C62.5321 25.4849 62.701 25.3786 62.8845 25.3103C63.068 25.2419 63.2625 25.2127 63.4567 25.2244H69.2842C71.0073 25.2244 72.3582 25.6271 73.337 26.4323C74.1131 27.1289 74.6208 28.103 74.7638 29.17C74.9068 30.2369 74.6751 31.3224 74.1128 32.2203C73.6337 32.9142 72.9651 33.4356 72.1974 33.7141C73.0815 33.9463 73.8646 34.4905 74.4179 35.2572ZM64.9604 32.6182H68.7904C70.8738 32.6182 71.9155 31.7967 71.9155 30.1535C71.9404 29.8024 71.8826 29.4502 71.7472 29.1286C71.6119 28.807 71.4033 28.5262 71.1401 28.3112C70.6231 27.9128 69.8399 27.7137 68.7904 27.7137H64.9604V32.6182ZM71.5865 39.6639C71.8476 39.4261 72.0519 39.1263 72.1825 38.7888C72.3132 38.4514 72.3666 38.0859 72.3384 37.7224C72.3647 37.3541 72.3094 36.9844 72.1768 36.6428C72.0442 36.3012 71.838 35.9973 71.5748 35.7552C71.0657 35.3236 70.2707 35.1078 69.1898 35.1078H64.9604V40.2863H69.1898C70.2864 40.2863 71.0852 40.0788 71.5865 39.6639Z" fill="#ED1C24"/>
<path d="M78.4359 42.3776C78.3018 42.2293 78.1981 42.0533 78.1314 41.8604C78.0647 41.6676 78.0363 41.4622 78.0482 41.2573V26.7432C78.0365 26.5382 78.0648 26.3328 78.1316 26.14C78.1983 25.9472 78.3019 25.7712 78.4359 25.6228C78.5805 25.4849 78.7494 25.3787 78.9329 25.3103C79.1164 25.2419 79.3108 25.2128 79.505 25.2245H87.9873C88.3645 25.1998 88.7382 25.3143 89.0447 25.5486C89.1707 25.6604 89.2704 25.8019 89.3356 25.9617C89.4009 26.1216 89.43 26.2954 89.4206 26.4693C89.4307 26.6488 89.4021 26.8284 89.337 26.9945C89.2719 27.1606 89.1719 27.3088 89.0447 27.4278C88.7414 27.67 88.3664 27.7893 87.9873 27.7643H81.0088V32.5938H87.5174C87.8945 32.5691 88.2681 32.6835 88.5747 32.9174C88.7024 33.0334 88.8028 33.1793 88.868 33.3435C88.9333 33.5077 88.9616 33.6857 88.9507 33.8635C88.9601 34.0375 88.931 34.2113 88.8658 34.3713C88.8005 34.5312 88.7008 34.6728 88.5747 34.7846C88.2683 35.019 87.8946 35.1334 87.5174 35.1083H81.0088V40.2369H87.9873C88.3664 40.2119 88.7414 40.3313 89.0447 40.5735C89.1719 40.6925 89.2718 40.8406 89.337 41.0066C89.4021 41.1726 89.4307 41.3521 89.4206 41.5315C89.4299 41.7055 89.4007 41.8793 89.3354 42.0392C89.2702 42.1991 89.1706 42.3407 89.0447 42.4527C88.7381 42.6868 88.3645 42.8012 87.9873 42.7764H79.505C79.3108 42.7882 79.1162 42.7591 78.9327 42.6907C78.7492 42.6222 78.5803 42.5158 78.4359 42.3776Z" fill="#ED1C24"/>
<path d="M105.481 25.5353C105.748 25.8523 105.887 26.2681 105.868 26.693V41.3071C105.886 41.7376 105.742 42.1582 105.469 42.4772C105.336 42.6253 105.176 42.7419 104.997 42.8192C104.819 42.8966 104.627 42.9329 104.435 42.9257C104.213 42.9384 103.992 42.8928 103.791 42.7929C103.59 42.6929 103.416 42.5419 103.284 42.3531L94.7073 30.5274V41.3071C94.7254 41.7333 94.5913 42.151 94.3318 42.4772C94.0561 42.7647 93.6847 42.9258 93.2979 42.9258C92.9111 42.9258 92.5398 42.7647 92.2641 42.4772C92.0042 42.1512 91.87 41.7333 91.8881 41.3071V26.693C91.8786 26.4815 91.909 26.2702 91.9776 26.0714C92.0462 25.8726 92.1516 25.6904 92.2876 25.5353C92.4256 25.3889 92.5909 25.2746 92.773 25.1997C92.955 25.1248 93.1498 25.0908 93.3449 25.1C93.5629 25.0893 93.7801 25.1359 93.9769 25.2358C94.1738 25.3356 94.3443 25.4856 94.4731 25.6722L103.026 37.4481V26.693C103.007 26.2681 103.146 25.8522 103.414 25.5353C103.545 25.3902 103.704 25.2763 103.881 25.2013C104.057 25.1262 104.246 25.0917 104.436 25.1C104.629 25.0903 104.822 25.1241 105.002 25.1991C105.182 25.2741 105.345 25.3887 105.481 25.5353Z" fill="#ED1C24"/>
<path d="M123.033 25.5353C123.3 25.8523 123.439 26.2681 123.42 26.693V41.3071C123.438 41.7376 123.294 42.1581 123.021 42.4772C122.888 42.6253 122.728 42.7419 122.549 42.8192C122.371 42.8966 122.179 42.9329 121.987 42.9257C121.765 42.9385 121.544 42.8929 121.343 42.793C121.142 42.693 120.968 42.5419 120.836 42.3531L112.259 30.5274V41.3071C112.278 41.7333 112.143 42.1512 111.883 42.4772C111.608 42.7646 111.237 42.9257 110.85 42.9257C110.463 42.9257 110.092 42.7646 109.816 42.4772C109.556 42.1513 109.422 41.7334 109.44 41.3071V26.693C109.431 26.4815 109.461 26.2702 109.53 26.0714C109.598 25.8726 109.704 25.6904 109.84 25.5353C109.978 25.3889 110.143 25.2746 110.325 25.1997C110.507 25.1248 110.702 25.0908 110.897 25.1C111.115 25.0893 111.332 25.1359 111.529 25.2358C111.726 25.3356 111.896 25.4856 112.025 25.6722L120.578 37.4481V26.693C120.559 26.2681 120.698 25.8522 120.966 25.5353C121.097 25.3901 121.256 25.2763 121.433 25.2012C121.609 25.1262 121.798 25.0917 121.988 25.1C122.181 25.0903 122.374 25.1241 122.554 25.1991C122.734 25.2741 122.897 25.3887 123.033 25.5353Z" fill="#ED1C24"/>
<path d="M127.379 42.3776C127.245 42.2293 127.141 42.0532 127.074 41.8604C127.008 41.6676 126.979 41.4622 126.991 41.2572V26.7431C126.98 26.5381 127.008 26.3328 127.075 26.14C127.141 25.9472 127.245 25.7711 127.379 25.6228C127.524 25.4849 127.692 25.3786 127.876 25.3103C128.059 25.2419 128.254 25.2127 128.448 25.2245H136.93C137.308 25.1999 137.681 25.3144 137.988 25.5485C138.114 25.6605 138.213 25.802 138.278 25.9618C138.344 26.1217 138.373 26.2954 138.364 26.4693C138.374 26.6488 138.345 26.8284 138.28 26.9944C138.215 27.1605 138.115 27.3087 137.988 27.4278C137.684 27.6698 137.309 27.7891 136.93 27.7643H129.952V32.5938H136.461C136.838 32.5691 137.211 32.6835 137.518 32.9174C137.645 33.0335 137.746 33.1793 137.811 33.3435C137.876 33.5077 137.905 33.6857 137.894 33.8635C137.903 34.0374 137.874 34.2112 137.809 34.3711C137.743 34.5311 137.644 34.6726 137.518 34.7846C137.211 35.0189 136.838 35.1333 136.461 35.1083H129.952V40.2369H136.93C137.309 40.2121 137.684 40.3314 137.988 40.5734C138.115 40.6925 138.215 40.8406 138.28 41.0066C138.345 41.1726 138.374 41.3521 138.364 41.5315C138.373 41.7055 138.344 41.8793 138.279 42.0392C138.213 42.1991 138.114 42.3407 137.988 42.4527C137.681 42.6867 137.308 42.801 136.93 42.7763H128.448C128.254 42.7882 128.059 42.7591 127.876 42.6906C127.692 42.6222 127.523 42.5158 127.379 42.3776Z" fill="#ED1C24"/>
<path d="M145.166 42.4648C145.026 42.3117 144.918 42.13 144.847 41.9309C144.777 41.7318 144.745 41.5196 144.754 41.3071V27.8631H140.478C139.538 27.8631 139.068 27.4233 139.068 26.5436C139.068 25.664 139.538 25.2241 140.478 25.2241H152.062C153.002 25.2241 153.472 25.664 153.472 26.5436C153.472 27.4233 153.002 27.8631 152.062 27.8631H147.786V41.3071C147.799 41.5199 147.769 41.7333 147.698 41.9329C147.628 42.1325 147.517 42.3137 147.375 42.4645C147.233 42.6153 147.061 42.7322 146.873 42.8074C146.685 42.8826 146.483 42.9143 146.282 42.9005C146.078 42.912 145.874 42.8793 145.682 42.8044C145.49 42.7295 145.314 42.6139 145.166 42.4648Z" fill="#ED1C24"/>
<path d="M159.569 42.4648C159.43 42.3116 159.321 42.1299 159.251 41.9309C159.18 41.7318 159.148 41.5196 159.158 41.3071V27.8631H154.881C153.941 27.8631 153.471 27.4233 153.471 26.5436C153.471 25.664 153.941 25.2241 154.881 25.2241H166.466C167.406 25.2241 167.876 25.664 167.876 26.5436C167.876 27.4233 167.406 27.8631 166.466 27.8631H162.19V41.3071C162.203 41.5199 162.173 41.7333 162.102 41.933C162.031 42.1326 161.921 42.314 161.779 42.4648C161.637 42.6157 161.465 42.7326 161.277 42.8077C161.089 42.8828 160.887 42.9145 160.686 42.9005C160.482 42.912 160.277 42.8794 160.085 42.8045C159.893 42.7296 159.718 42.614 159.569 42.4648Z" fill="#ED1C24"/>
<path d="M176.415 42.3775C176.281 42.2293 176.178 42.0532 176.111 41.8604C176.044 41.6676 176.016 41.4622 176.028 41.2572V26.7431C176.016 26.5381 176.044 26.3328 176.111 26.14C176.178 25.9472 176.281 25.7711 176.415 25.6228C176.56 25.4849 176.729 25.3786 176.913 25.3103C177.096 25.2419 177.291 25.2127 177.485 25.2244H182.137C184.847 25.2244 186.95 25.9921 188.446 27.5273C189.941 29.0626 190.69 31.2163 190.69 33.9883C190.69 36.7764 189.942 38.9381 188.446 40.4734C186.949 42.0087 184.847 42.7763 182.137 42.7763H177.485C177.291 42.7881 177.096 42.759 176.912 42.6905C176.729 42.6221 176.56 42.5157 176.415 42.3775ZM181.949 40.1618C185.756 40.1618 187.659 38.1038 187.659 33.9879C187.659 29.8883 185.755 27.8384 181.949 27.8381H179.059V40.1618H181.949Z" fill="#58595B"/>
<path d="M194.132 42.3776C193.998 42.2294 193.894 42.0533 193.828 41.8605C193.761 41.6677 193.732 41.4623 193.744 41.2572V26.7431C193.733 26.5381 193.761 26.3328 193.828 26.14C193.895 25.9472 193.998 25.7711 194.132 25.6228C194.277 25.4849 194.446 25.3787 194.629 25.3103C194.813 25.2419 195.007 25.2127 195.201 25.2245H203.684C204.061 25.1998 204.434 25.3143 204.741 25.5485C204.867 25.6605 204.966 25.8021 205.031 25.9619C205.097 26.1217 205.126 26.2955 205.117 26.4693C205.127 26.6488 205.098 26.8283 205.033 26.9944C204.968 27.1605 204.868 27.3087 204.741 27.4278C204.438 27.6699 204.063 27.7892 203.684 27.7643H196.705V32.5938H203.214C203.591 32.5692 203.964 32.6836 204.271 32.9174C204.399 33.0335 204.499 33.1793 204.564 33.3435C204.629 33.5077 204.658 33.6857 204.647 33.8635C204.656 34.0374 204.627 34.2113 204.562 34.3712C204.497 34.5311 204.397 34.6726 204.271 34.7846C203.965 35.0189 203.591 35.1333 203.214 35.1083H196.705V40.2369H203.684C204.063 40.212 204.438 40.3314 204.741 40.5735C204.868 40.6925 204.968 40.8406 205.033 41.0066C205.098 41.1726 205.127 41.3521 205.117 41.5315C205.126 41.7054 205.097 41.8793 205.032 42.0392C204.966 42.1991 204.867 42.3407 204.741 42.4527C204.434 42.6868 204.061 42.8011 203.684 42.7763H195.201C195.007 42.7882 194.813 42.7591 194.629 42.6907C194.446 42.6222 194.277 42.5158 194.132 42.3776Z" fill="#58595B"/>
<path d="M210.744 41.9051C209.547 41.1768 208.585 40.0835 207.983 38.7677C207.348 37.2661 207.02 35.6393 207.02 33.9938C207.02 32.3484 207.348 30.7216 207.983 29.22C208.588 27.9096 209.55 26.8213 210.744 26.0955C212.026 25.3428 213.473 24.9647 214.938 25.0001C215.928 24.9927 216.912 25.1567 217.852 25.4856C218.733 25.7936 219.553 26.2704 220.272 26.8922C220.451 27.0276 220.596 27.2072 220.695 27.4154C220.778 27.628 220.819 27.857 220.812 28.0872C220.822 28.4198 220.723 28.7457 220.53 29.0088C220.452 29.1234 220.35 29.2169 220.232 29.2818C220.113 29.3467 219.982 29.3811 219.849 29.3822C219.502 29.3709 219.167 29.2494 218.886 29.0337C218.317 28.564 217.683 28.1903 217.006 27.9258C216.384 27.7114 215.733 27.6062 215.079 27.6146C213.45 27.6146 212.216 28.154 211.378 29.2328C210.541 30.3117 210.122 31.8968 210.121 33.988C210.121 36.0959 210.54 37.6891 211.378 38.7677C212.216 39.8463 213.45 40.3857 215.079 40.386C215.715 40.3928 216.346 40.2833 216.947 40.0623C217.633 39.783 218.284 39.4153 218.886 38.9673C219.036 38.8708 219.193 38.7876 219.356 38.7183C219.513 38.6522 219.68 38.6185 219.849 38.6192C219.982 38.6202 220.113 38.6546 220.232 38.7195C220.35 38.7844 220.453 38.878 220.53 38.9926C220.722 39.2556 220.822 39.5813 220.812 39.9138C220.816 40.14 220.776 40.3647 220.695 40.5739C220.599 40.7873 220.453 40.9714 220.272 41.1092C219.553 41.7309 218.733 42.2076 217.852 42.5154C216.912 42.8445 215.928 43.0085 214.938 43.0009C213.473 43.0359 212.026 42.6577 210.744 41.9051Z" fill="#58595B"/>
<path d="M226.346 41.905C225.159 41.1706 224.206 40.0784 223.608 38.7676C222.975 37.2659 222.647 35.6399 222.645 33.9951C222.643 32.3503 222.967 30.7234 223.597 29.2199C224.193 27.9112 225.147 26.8226 226.334 26.0954C227.63 25.3759 229.071 25 230.534 25C231.997 25 233.438 25.3759 234.734 26.0954C235.916 26.8256 236.866 27.9138 237.46 29.2199C238.089 30.7234 238.413 32.3503 238.411 33.9951C238.409 35.6399 238.081 37.2659 237.448 38.7676C236.85 40.0781 235.897 41.1703 234.711 41.905C233.421 42.6242 231.986 43 230.528 43C229.071 43 227.635 42.6242 226.346 41.905ZM234.1 38.7676C234.953 37.6556 235.38 36.0624 235.38 33.988C235.38 31.9136 234.953 30.3242 234.1 29.2199C233.644 28.6979 233.092 28.2813 232.477 27.9963C231.863 27.7114 231.199 27.5643 230.528 27.5643C229.857 27.5643 229.194 27.7114 228.579 27.9963C227.964 28.2813 227.412 28.6979 226.957 29.2199C226.102 30.3237 225.676 31.913 225.676 33.988C225.677 36.0629 226.104 37.6561 226.957 38.7676C227.41 39.2933 227.962 39.7132 228.577 40.0005C229.192 40.2877 229.856 40.4361 230.528 40.4361C231.2 40.4361 231.865 40.2877 232.48 40.0005C233.095 39.7132 233.646 39.2933 234.1 38.7676Z" fill="#58595B"/>
<path d="M255 41.6306C255.003 41.8134 254.964 41.9942 254.889 42.1585C254.813 42.3228 254.703 42.4661 254.565 42.5767C254.277 42.8251 253.915 42.9574 253.544 42.9501C253.286 42.9506 253.033 42.8825 252.807 42.752C252.581 42.6214 252.39 42.4327 252.251 42.2032L249.126 37.1742C248.883 36.721 248.541 36.3367 248.128 36.0538C247.704 35.8204 247.23 35.7088 246.753 35.7302H244.45V41.3069C244.461 41.5223 244.431 41.7378 244.363 41.9408C244.294 42.1439 244.188 42.3304 244.051 42.4895C243.909 42.6375 243.74 42.7527 243.554 42.8278C243.368 42.9029 243.169 42.9362 242.97 42.9256C242.77 42.9355 242.57 42.9019 242.382 42.8269C242.194 42.7519 242.022 42.6371 241.878 42.4895C241.737 42.3324 241.628 42.1464 241.557 41.9431C241.486 41.7398 241.456 41.5233 241.466 41.3069V26.7426C241.455 26.5377 241.483 26.3323 241.55 26.1395C241.616 25.9467 241.72 25.7706 241.854 25.6223C241.999 25.4843 242.168 25.3781 242.351 25.3097C242.535 25.2413 242.729 25.2122 242.923 25.224H248.798C250.677 25.224 252.107 25.6679 253.086 26.5559C254.065 27.4439 254.554 28.726 254.554 30.4024C254.6 31.6244 254.21 32.82 253.462 33.7509C252.645 34.6716 251.554 35.2652 250.372 35.4314C250.811 35.5397 251.22 35.7526 251.57 36.0538C251.964 36.4129 252.304 36.8325 252.581 37.2987L254.719 40.7593C254.892 41.0136 254.99 41.317 255 41.6306ZM250.888 32.5808C251.166 32.3195 251.382 31.9936 251.521 31.6286C251.659 31.2637 251.716 30.8696 251.687 30.4775C251.687 29.5148 251.421 28.8135 250.888 28.3733C250.355 27.9332 249.517 27.7133 248.374 27.7136H244.426V33.2655H248.374C249.517 33.2655 250.355 33.0373 250.888 32.5808Z" fill="#58595B"/>
</g>
<defs>
<clipPath id="clip0_456_279">
<rect width="193" height="18" fill="white" transform="translate(62 25)"/>
</clipPath>
</defs>
</svg>
