<svg width="86" height="86" viewBox="0 0 86 86" fill="none" xmlns="http://www.w3.org/2000/svg">
<rect x="0.5" y="0.5" width="85" height="85" rx="42.5" fill="#EC2027"/>
<g clip-path="url(#clip0_207_428)">
<path d="M67.8833 58.8414L57.2738 43.5586C57.0223 43.1933 56.6824 42.8949 56.2845 42.69C55.8866 42.4852 55.4432 42.3804 54.994 42.3849C54.5447 42.3895 54.1036 42.5032 53.7101 42.7161C53.3167 42.9289 52.9831 43.2341 52.7393 43.6044L50.2141 47.3867L45.2652 40.436C44.9091 39.9273 44.3841 39.5558 43.7798 39.3849V32.48H49.6357V34.467C49.6357 34.6704 49.7181 34.8656 49.8647 35.0094C50.0113 35.1533 50.2102 35.2341 50.4175 35.2342H56.8518C56.9778 35.2272 57.1003 35.1904 57.2087 35.127C57.317 35.0635 57.4081 34.9752 57.4742 34.8697C57.5403 34.7641 57.5793 34.6444 57.588 34.5209C57.5966 34.3973 57.5747 34.2735 57.524 34.1601L55.9761 31.1755L57.4772 28.1909C57.5425 28.0816 57.5769 27.9571 57.5769 27.8303C57.5769 27.7035 57.5425 27.579 57.4772 27.4696C57.4119 27.3602 57.3181 27.2699 57.2054 27.2079C57.0927 27.1459 56.9653 27.1145 56.8361 27.1168H51.1292V25.506C51.1292 25.4052 51.109 25.3055 51.0697 25.2124C51.0304 25.1193 50.9728 25.0347 50.9002 24.9635C50.8276 24.8922 50.7414 24.8357 50.6466 24.7971C50.5517 24.7586 50.4501 24.7388 50.3474 24.7388H42.9983C42.791 24.7388 42.5921 24.8196 42.4455 24.9635C42.2989 25.1074 42.2165 25.3025 42.2165 25.506V39.3999C41.6193 39.5681 41.0981 39.9307 40.7387 40.4281L34.1401 49.8111L31.2708 45.8141C31.0127 45.4559 30.6694 45.165 30.2707 44.9667C29.8719 44.7684 29.4298 44.6687 28.9829 44.6763C28.5359 44.6838 28.0976 44.7984 27.7061 45.0101C27.3145 45.2218 26.9816 45.5241 26.7363 45.8908L25.4777 47.7935L18.1053 58.8492C18.0376 58.9643 18.0015 59.0947 18.0006 59.2277C17.9997 59.3606 18.0341 59.4915 18.1002 59.6075C18.1664 59.7235 18.2622 59.8206 18.3781 59.8893C18.4941 59.9581 18.6263 59.9961 18.7617 59.9996H67.2342C67.3717 59.9993 67.5066 59.9628 67.6249 59.8939C67.7431 59.8251 67.8404 59.7264 67.9067 59.6082C67.9729 59.4899 68.0057 59.3564 68.0015 59.2216C67.9974 59.0867 67.9565 58.9554 67.8831 58.8413L67.8833 58.8414ZM55.5779 28.6055L54.4521 30.8458C54.398 30.9477 54.3697 31.0609 54.3697 31.1758C54.3697 31.2907 54.398 31.4039 54.4521 31.5058L55.5779 33.7382H51.1292V28.6055H55.5779ZM43.7801 26.2505H49.6361V31.0072H43.7801V26.2505ZM53.9437 44.4407C54.0525 44.275 54.2017 44.1384 54.3777 44.0434C54.5537 43.9483 54.7511 43.8977 54.952 43.8962C55.1529 43.8947 55.351 43.9422 55.5285 44.0346C55.7061 44.127 55.8573 44.2612 55.9688 44.4253L57.3918 46.4585L56.485 47.6476L55.586 46.2359C55.5187 46.1293 55.425 46.041 55.3137 45.9793C55.2024 45.9176 55.077 45.8844 54.9491 45.8829C54.8213 45.8813 54.6951 45.9114 54.5823 45.9705C54.4694 46.0295 54.3736 46.1155 54.3036 46.2205L53.3497 47.6782L52.4974 46.5887L53.9437 44.4407ZM38.135 46.7423L38.995 47.8318C39.0684 47.916 39.1595 47.9836 39.2621 48.03C39.3646 48.0763 39.4762 48.1003 39.5891 48.1003C39.7021 48.1003 39.8137 48.0763 39.9162 48.03C40.0188 47.9836 40.1099 47.916 40.1833 47.8318L41.1293 46.7423L41.9111 47.8239C41.9745 47.9183 42.0598 47.9967 42.16 48.0526C42.2602 48.1085 42.3724 48.1404 42.4875 48.1456C42.6027 48.1509 42.7174 48.1293 42.8224 48.0827C42.9275 48.0362 43.0198 47.9659 43.0919 47.8777L44.0926 46.6731L45.1166 47.8777C45.1858 47.9591 45.2718 48.0252 45.369 48.0715C45.4662 48.1178 45.5723 48.1433 45.6803 48.1462C45.7883 48.1491 45.8957 48.1295 45.9954 48.0885C46.095 48.0475 46.1847 47.9861 46.2583 47.9085L47.6892 46.4126L49.6123 49.1287L56.211 58.5114H29.7933L38.135 46.7423ZM42.0049 41.2798C42.117 41.1212 42.2666 40.9916 42.4409 40.9021C42.6152 40.8126 42.8089 40.7658 43.0056 40.7658C43.2023 40.7658 43.3961 40.8126 43.5704 40.9021C43.7447 40.9916 43.8943 41.1212 44.0064 41.2798L46.751 45.1617L45.7342 46.2513L44.6788 45.0083C44.607 44.9242 44.5173 44.8566 44.416 44.8102C44.3147 44.7638 44.2043 44.7398 44.0925 44.7398C43.9807 44.7398 43.8702 44.7638 43.7689 44.8102C43.6676 44.8566 43.5779 44.9242 43.5061 45.0083L42.5605 46.1439L41.7787 45.0623C41.7137 44.9653 41.6257 44.8853 41.5221 44.8292C41.4185 44.7731 41.3026 44.7426 41.1843 44.7403C41.0675 44.7368 40.9513 44.7591 40.8444 44.8056C40.7376 44.8521 40.6427 44.9216 40.5669 45.0089L39.5896 46.1827L39.0189 45.4613L42.0049 41.2798ZM28.018 46.7423C28.1267 46.577 28.276 46.4411 28.4522 46.3473C28.6284 46.2534 28.8258 46.2046 29.0263 46.2052C29.2257 46.1972 29.4239 46.2395 29.6018 46.3282C29.7797 46.4168 29.9315 46.5488 30.0425 46.7115L31.4498 48.6525L30.9182 49.4197L30.0348 48.0158C29.9662 47.9066 29.8699 47.8168 29.7554 47.7549C29.6409 47.6931 29.5121 47.6615 29.3814 47.663C29.2507 47.6646 29.1227 47.6993 29.0097 47.7638C28.8968 47.8283 28.8028 47.9204 28.7368 48.0312L27.9002 49.4197L27.0403 48.223L28.018 46.7423ZM26.1493 49.5042L27.3611 51.1614C27.4302 51.2627 27.5248 51.3448 27.6356 51.3999C27.7465 51.4549 27.8699 51.481 27.994 51.4757C28.1181 51.4703 28.2387 51.4336 28.3442 51.3693C28.4497 51.3049 28.5365 51.2149 28.5963 51.108L29.3781 49.7962L30.2067 51.1234C30.2744 51.2273 30.3666 51.3136 30.4755 51.375C30.5843 51.4365 30.7067 51.4713 30.8322 51.4765C30.9595 51.4826 31.0863 51.4561 31.2 51.3996C31.3138 51.3431 31.4106 51.2585 31.481 51.1542L32.3566 49.9037L33.1932 51.0698L27.916 58.5118H20.0978L26.1493 49.5042ZM58.0555 58.5117L51.1211 48.7063L51.6683 47.8854L52.8567 49.4198C52.928 49.5081 53.0181 49.58 53.1208 49.6304C53.2235 49.6807 53.3363 49.7083 53.451 49.7112H53.4902C53.6109 49.7033 53.7281 49.668 53.8326 49.6081C53.937 49.5481 54.0259 49.4653 54.0922 49.3659L54.9837 48.0157L55.836 49.3582C55.9045 49.4568 55.9954 49.5383 56.1016 49.5963C56.2078 49.6544 56.3263 49.6873 56.4477 49.6925C56.5691 49.6978 56.6901 49.6751 56.8011 49.6264C56.912 49.5778 57.0099 49.5044 57.0869 49.4121L58.3378 47.7626L65.8273 58.5038L58.0555 58.5117Z" fill="white"/>
<path d="M28.73 34.6818C29.7922 34.6853 30.8228 34.3271 31.6459 33.6683C32.4691 33.0095 33.0339 32.0909 33.244 31.0691C33.4541 30.0474 33.2964 28.9857 32.798 28.0652C32.2996 27.1447 31.4912 26.4224 30.5107 26.0215C29.5302 25.6206 28.4383 25.5658 27.4213 25.8666C26.4042 26.1674 25.525 26.8051 24.9336 27.6709C24.3421 28.5368 24.0751 29.5771 24.178 30.6146C24.2808 31.6521 24.7473 32.6224 25.4977 33.3601C26.3543 34.2033 27.5167 34.6786 28.73 34.6818ZM28.73 27.1786C29.4412 27.1768 30.1311 27.4171 30.6819 27.8587C31.2327 28.3003 31.6104 28.9157 31.7505 29.6C31.8906 30.2842 31.7844 30.995 31.4502 31.6111C31.1159 32.2272 30.5742 32.7104 29.9174 32.9783C29.2606 33.2462 28.5295 33.2822 27.8487 33.0802C27.1679 32.8782 26.5796 32.4507 26.184 31.8707C25.7885 31.2906 25.6104 30.5938 25.6799 29.8992C25.7494 29.2045 26.0623 28.5551 26.5653 28.0616C27.1391 27.4974 27.9177 27.1798 28.73 27.1786Z" fill="white"/>
<path d="M28.7301 24.8922C28.8327 24.8922 28.9344 24.8724 29.0293 24.8339C29.1241 24.7953 29.2103 24.7388 29.2829 24.6675C29.3555 24.5963 29.4131 24.5117 29.4524 24.4186C29.4917 24.3255 29.5119 24.2258 29.5119 24.125V21.9539C29.5408 21.8407 29.543 21.7226 29.5185 21.6085C29.4939 21.4943 29.4431 21.3872 29.37 21.2952C29.2968 21.2032 29.2033 21.1288 29.0965 21.0777C28.9897 21.0265 28.8723 20.9999 28.7535 20.9999C28.6346 20.9999 28.5173 21.0265 28.4104 21.0777C28.3036 21.1288 28.2101 21.2032 28.137 21.2952C28.0638 21.3872 28.0131 21.4943 27.9885 21.6085C27.9639 21.7226 27.9661 21.8407 27.9951 21.9539V24.1479C28.0006 24.3397 28.0791 24.5224 28.2152 24.6602C28.3512 24.7979 28.5349 24.8808 28.7301 24.8922Z" fill="white"/>
<path d="M23.8435 26.4424C23.9928 26.5292 24.1674 26.5647 24.3396 26.5433C24.5118 26.522 24.6719 26.4451 24.7946 26.3246C24.9174 26.2042 24.9958 26.0471 25.0175 25.8781C25.0392 25.7091 25.0031 25.5378 24.9147 25.3912L23.351 23.8568C23.201 23.7673 23.0246 23.73 22.8503 23.7509C22.676 23.7718 22.5139 23.8496 22.3902 23.9719C22.2665 24.0942 22.1883 24.2538 22.1683 24.4249C22.1483 24.5961 22.1876 24.769 22.2798 24.9156L23.8435 26.4424Z" fill="white"/>
<path d="M20.3257 30.9299H22.5773C22.6926 30.9583 22.813 30.9605 22.9293 30.9364C23.0456 30.9123 23.1548 30.8624 23.2485 30.7907C23.3422 30.7189 23.418 30.6271 23.4702 30.5223C23.5223 30.4175 23.5494 30.3023 23.5494 30.1857C23.5494 30.069 23.5223 29.9539 23.4702 29.8491C23.418 29.7443 23.3422 29.6525 23.2485 29.5807C23.1548 29.509 23.0456 29.4591 22.9293 29.435C22.813 29.4109 22.6926 29.4131 22.5773 29.4415H20.3257C20.1566 29.4831 20.0066 29.5789 19.8994 29.7137C19.7922 29.8486 19.734 30.0147 19.734 30.1857C19.734 30.3567 19.7922 30.5228 19.8994 30.6576C20.0066 30.7925 20.1566 30.8883 20.3257 30.9299Z" fill="white"/>
<path d="M23.8434 33.9304L22.2798 35.4648C22.2042 35.532 22.143 35.6134 22.0999 35.7042C22.0569 35.795 22.0328 35.8933 22.0292 35.9934C22.0255 36.0935 22.0424 36.1932 22.0787 36.2868C22.115 36.3804 22.1701 36.4659 22.2407 36.5382C22.3113 36.6105 22.3959 36.6683 22.4896 36.7079C22.5833 36.7476 22.6841 36.7684 22.7862 36.7692C22.8882 36.77 22.9894 36.7506 23.0837 36.7124C23.178 36.6741 23.2635 36.6177 23.3352 36.5464L24.8989 35.012C24.999 34.9525 25.0843 34.8716 25.1483 34.7754C25.2124 34.6792 25.2536 34.5702 25.2689 34.4562C25.2843 34.3423 25.2733 34.2265 25.2369 34.1173C25.2005 34.0081 25.1395 33.9083 25.0586 33.8253C24.9776 33.7423 24.8786 33.6782 24.769 33.6377C24.6594 33.5973 24.5419 33.5816 24.4253 33.5916C24.3087 33.6017 24.1958 33.6374 24.0951 33.696C23.9944 33.7547 23.9084 33.8347 23.8434 33.9304Z" fill="white"/>
<path d="M27.9714 36.2241V38.4181C28.0139 38.584 28.1115 38.7312 28.249 38.8363C28.3864 38.9415 28.5556 38.9986 28.7299 38.9986C28.9041 38.9986 29.0734 38.9415 29.2108 38.8363C29.3482 38.7312 29.4459 38.584 29.4883 38.4181V36.2241C29.446 36.0582 29.3483 35.9109 29.2109 35.8057C29.0735 35.7005 28.9042 35.6433 28.7299 35.6433C28.5556 35.6433 28.3863 35.7005 28.2489 35.8057C28.1115 35.9109 28.0138 36.0582 27.9714 36.2241Z" fill="white"/>
<path d="M32.5453 33.9304C32.4089 34.0726 32.333 34.2606 32.333 34.4559C32.333 34.6512 32.4089 34.8392 32.5453 34.9815L34.1089 36.5159C34.167 36.62 34.2488 36.7095 34.3481 36.7773C34.4474 36.8452 34.5613 36.8895 34.681 36.9067C34.8006 36.924 34.9227 36.9138 35.0377 36.877C35.1527 36.8401 35.2573 36.7776 35.3435 36.6943C35.4297 36.611 35.495 36.5092 35.5343 36.3969C35.5735 36.2847 35.5858 36.165 35.5699 36.0473C35.5541 35.9297 35.5107 35.8172 35.4431 35.7188C35.3754 35.6204 35.2855 35.5387 35.1802 35.4802L33.6166 33.9458C33.4736 33.8099 33.2832 33.7326 33.0842 33.7298C32.8851 33.7269 32.6925 33.7986 32.5455 33.9304H32.5453Z" fill="white"/>
<path d="M34.1321 30.1864C34.1321 30.3899 34.2145 30.585 34.3611 30.7289C34.5077 30.8728 34.7066 30.9536 34.9139 30.9536H37.1501C37.2653 30.982 37.3857 30.9841 37.5019 30.96C37.6182 30.9358 37.7273 30.886 37.821 30.8142C37.9147 30.7425 37.9904 30.6507 38.0426 30.5459C38.0947 30.4411 38.1218 30.326 38.1218 30.2094C38.1218 30.0928 38.0947 29.9777 38.0426 29.8729C37.9904 29.7681 37.9147 29.6764 37.821 29.6046C37.7273 29.5329 37.6182 29.483 37.5019 29.4588C37.3857 29.4347 37.2653 29.4368 37.1501 29.4652H34.8828C34.6888 29.4725 34.5045 29.5504 34.3657 29.6837C34.227 29.817 34.1438 29.9962 34.1323 30.1864H34.1321Z" fill="white"/>
<path d="M33.085 26.6572C33.1838 26.6587 33.2819 26.6405 33.3733 26.6035C33.4647 26.5666 33.5475 26.5118 33.6166 26.4425L35.1802 24.9081C35.2755 24.7608 35.3169 24.5861 35.2974 24.4128C35.278 24.2394 35.1989 24.0777 35.0732 23.9543C34.9476 23.8309 34.7828 23.7533 34.6062 23.7341C34.4295 23.7149 34.2514 23.7554 34.1013 23.8488L32.5377 25.3832C32.443 25.4912 32.3808 25.6228 32.3581 25.7635C32.3353 25.9041 32.3529 26.0482 32.4089 26.1796C32.4648 26.311 32.557 26.4245 32.675 26.5074C32.793 26.5903 32.9321 26.6394 33.0769 26.6491L33.085 26.6572Z" fill="white"/>
</g>
<rect x="0.5" y="0.5" width="85" height="85" rx="42.5" stroke="#EC2027"/>
<defs>
<clipPath id="clip0_207_428">
<rect width="50" height="39" fill="white" transform="translate(18 21)"/>
</clipPath>
</defs>
</svg>
