<svg width="24" height="24" viewBox="0 0 24 24" fill="none" xmlns="http://www.w3.org/2000/svg">
<g clip-path="url(#clip0_85_13168)">
<path d="M11.8708 21.764C10.6808 21.764 9.88676 21.203 9.17776 20.708C8.67476 20.351 8.20176 20.012 7.64476 19.918C7.37956 19.8724 7.11085 19.8503 6.84176 19.852C6.36976 19.852 5.99476 19.923 5.72776 19.977C5.55776 20.007 5.41576 20.035 5.30376 20.035C5.18776 20.035 5.04076 20.003 4.98376 19.807C4.93376 19.647 4.90276 19.495 4.87176 19.348C4.79176 18.978 4.72476 18.751 4.58576 18.728C3.09676 18.501 2.20576 18.158 2.03176 17.752C2.01776 17.708 2.00076 17.662 2.00076 17.627C1.99076 17.502 2.08076 17.4 2.20576 17.377C3.38676 17.181 4.44776 16.553 5.34376 15.519C6.03976 14.716 6.37876 13.94 6.40976 13.856C6.40976 13.846 6.41876 13.846 6.41876 13.846C6.58876 13.495 6.62376 13.196 6.52076 12.951C6.32976 12.491 5.69576 12.295 5.26376 12.161C5.15276 12.131 5.05876 12.095 4.97876 12.068C4.60876 11.921 3.99276 11.608 4.07376 11.176C4.13176 10.864 4.54576 10.641 4.88476 10.641C4.97876 10.641 5.05876 10.655 5.12476 10.691C5.50476 10.864 5.84776 10.953 6.14176 10.953C6.50776 10.953 6.68176 10.815 6.72576 10.771C6.71645 10.5732 6.70478 10.3755 6.69076 10.178C6.60076 8.813 6.49876 7.119 6.93076 6.148C8.22876 3.241 10.9838 3.008 11.7998 3.008L12.1558 3H12.2058C13.0208 3 15.7758 3.227 17.0738 6.139C17.5108 7.11 17.4038 8.809 17.3138 10.169L17.3058 10.236C17.2958 10.418 17.2828 10.592 17.2738 10.771C17.3188 10.806 17.4788 10.94 17.8088 10.944C18.0948 10.936 18.4068 10.842 18.7628 10.681C18.8613 10.6384 18.9674 10.6159 19.0748 10.615C19.1998 10.615 19.3248 10.645 19.4318 10.681H19.4408C19.7398 10.793 19.9358 11.002 19.9358 11.221C19.9448 11.426 19.7838 11.738 19.0218 12.046C18.9418 12.076 18.8478 12.113 18.7368 12.139C18.3128 12.269 17.6798 12.474 17.4788 12.929C17.3678 13.169 17.4128 13.477 17.5818 13.824C17.5818 13.834 17.5908 13.834 17.5908 13.834C17.6398 13.958 18.9278 16.883 21.7948 17.36C21.8534 17.3699 21.9064 17.4006 21.9441 17.4466C21.9818 17.4926 22.0016 17.5506 21.9998 17.61C21.9998 17.654 21.9908 17.699 21.9688 17.739C21.7948 18.149 20.9118 18.483 19.4138 18.715C19.2758 18.737 19.2088 18.965 19.1288 19.335C19.0967 19.4892 19.0594 19.6423 19.0168 19.794C18.9728 19.941 18.8788 20.021 18.7188 20.021H18.6958C18.5938 20.021 18.4558 20.008 18.2728 19.972C17.9063 19.8939 17.5325 19.855 17.1578 19.856C16.8948 19.856 16.6228 19.879 16.3558 19.923C15.8028 20.013 15.3258 20.356 14.8218 20.713C14.1048 21.203 13.3068 21.764 12.1248 21.764H11.8708Z" fill="#BBC3CF"/>
</g>
<defs>
<clipPath id="clip0_85_13168">
<rect width="24" height="24" fill="white"/>
</clipPath>
</defs>
</svg>
