<svg width="86" height="86" viewBox="0 0 86 86" fill="none" xmlns="http://www.w3.org/2000/svg">
<rect x="0.5" y="0.5" width="85" height="85" rx="42.5" fill="#EC2027"/>
<g clip-path="url(#clip0_207_440)">
<path d="M58.3421 44.0249L53.028 36.0551C52.9419 35.9288 52.8255 35.825 52.6889 35.7527C52.5523 35.6803 52.3996 35.6416 52.2442 35.64H35.0937C34.9383 35.6417 34.7857 35.6804 34.6492 35.7527C34.5127 35.8251 34.3963 35.9289 34.3103 36.0551L28.9962 44.0249C28.8905 44.1878 28.8395 44.3788 28.8503 44.5713C28.861 44.7638 28.933 44.9482 29.0561 45.099L42.9449 61.6776C43.3858 62.1075 43.9516 62.1075 44.3928 61.6776L58.2825 45.099C58.3623 45.0005 58.4211 44.8874 58.4553 44.7664C58.4896 44.6454 58.4987 44.5189 58.482 44.3944C58.4622 44.263 58.4144 44.1372 58.3418 44.0249H58.3421ZM50.7954 37.4637L48.4242 42.5769L45.2204 37.4637H50.7954ZM46.881 43.6107H40.4397L43.575 38.3344L46.881 43.6107ZM41.9314 37.4637L38.9173 42.5362L36.547 37.4637H41.9314ZM34.9496 38.4415L37.3645 43.6103H31.5028L34.9496 38.4415ZM31.7504 45.4337H38.1124L41.5273 57.1042L31.7504 45.4337ZM43.6712 57.7869L40.0566 45.4329H47.3076L43.6712 57.7869ZM45.8226 57.0893L49.2528 45.4337H55.5879L45.8226 57.0893ZM49.9967 43.6103L52.392 38.4456L55.8351 43.6103H49.9967Z" fill="white"/>
<path d="M58.4841 44.4074C58.487 44.4262 58.4674 44.2872 58.4821 44.3947C58.4886 44.4405 58.486 44.4227 58.4841 44.4074Z" fill="white"/>
<path d="M43.8382 30.4841C44.0861 30.4841 44.3239 30.3881 44.4992 30.2171C44.6745 30.0461 44.773 29.8142 44.773 29.5724V20.9116C44.773 20.6698 44.6745 20.4379 44.4992 20.267C44.3239 20.096 44.0861 19.9999 43.8382 19.9999C43.5903 19.9999 43.3525 20.096 43.1772 20.267C43.0019 20.4379 42.9034 20.6698 42.9034 20.9116V29.5725C42.9034 29.6923 42.9275 29.8108 42.9744 29.9215C43.0214 30.0321 43.0902 30.1327 43.177 30.2173C43.2639 30.302 43.3669 30.3691 43.4804 30.4149C43.5938 30.4607 43.7154 30.4842 43.8382 30.4841Z" fill="white"/>
<path d="M52.8904 31.3486C53.0068 31.3866 53.1298 31.4018 53.2523 31.3934C53.3748 31.385 53.4944 31.3531 53.6042 31.2995C53.714 31.246 53.812 31.1718 53.8924 31.0813C53.9728 30.9908 54.0341 30.8857 54.0729 30.7721L56.8772 22.567C56.951 22.3389 56.9299 22.0915 56.8185 21.8784C56.707 21.6652 56.5141 21.5034 56.2813 21.4277C56.0486 21.352 55.7947 21.3687 55.5744 21.474C55.3541 21.5793 55.185 21.7648 55.1038 21.9906L52.2995 30.1956C52.2211 30.425 52.2395 30.6753 52.3504 30.8915C52.4613 31.1077 52.6557 31.2721 52.8909 31.3486H52.8904Z" fill="white"/>
<path d="M66.6123 28.0625C66.5128 27.9924 66.4001 27.9421 66.2806 27.9145C66.1612 27.887 66.0373 27.8826 65.9161 27.9017C65.7949 27.9208 65.6788 27.963 65.5743 28.0259C65.4698 28.0887 65.3791 28.1711 65.3072 28.2682L60.1159 35.28C59.976 35.4762 59.9207 35.7181 59.9619 35.9537C60.0031 36.1893 60.1375 36.3997 60.3361 36.5396C60.5348 36.6795 60.7818 36.7378 61.0241 36.7018C61.2663 36.6658 61.4844 36.5385 61.6314 36.3473L66.8227 29.3352C66.8946 29.2381 66.9463 29.1283 66.9747 29.0118C67.0031 28.8953 67.0076 28.7744 66.9881 28.6562C66.9686 28.538 66.9254 28.4247 66.8609 28.3228C66.7964 28.2209 66.712 28.1324 66.6124 28.0623L66.6123 28.0625Z" fill="white"/>
<path d="M32.9273 30.7722C32.9645 30.8878 33.0249 30.9949 33.105 31.0874C33.1851 31.1799 33.2833 31.2559 33.3938 31.311C33.5044 31.366 33.6251 31.3991 33.7489 31.4082C33.8727 31.4173 33.9971 31.4022 34.1148 31.3639C34.2326 31.3256 34.3414 31.2648 34.4348 31.1851C34.5282 31.1053 34.6044 31.0082 34.6589 30.8995C34.7134 30.7907 34.7452 30.6724 34.7523 30.5515C34.7594 30.4307 34.7418 30.3096 34.7005 30.1954L31.8962 21.9904C31.8178 21.761 31.6492 21.5713 31.4274 21.4631C31.2057 21.355 30.9489 21.3371 30.7137 21.4136C30.4785 21.49 30.284 21.6545 30.1731 21.8708C30.0622 22.087 30.0439 22.3374 30.1223 22.5668L32.9273 30.7722Z" fill="white"/>
<path d="M21.6928 28.2676C21.6221 28.1678 21.5317 28.0828 21.4269 28.0175C21.322 27.9523 21.2049 27.9081 21.0823 27.8875C20.9598 27.867 20.8342 27.8705 20.713 27.8978C20.5919 27.9252 20.4775 27.9759 20.3767 28.0469C20.2759 28.1179 20.1906 28.2078 20.1258 28.3113C20.0611 28.4149 20.0182 28.53 19.9996 28.65C19.981 28.7699 19.9872 28.8923 20.0177 29.0098C20.0483 29.1274 20.1026 29.2379 20.1774 29.3347L25.3687 36.3469C25.4397 36.4462 25.5302 36.5307 25.635 36.5955C25.7398 36.6603 25.8567 36.7041 25.979 36.7244C26.1014 36.7447 26.2266 36.741 26.3475 36.7136C26.4683 36.6862 26.5824 36.6355 26.683 36.5647C26.7835 36.4938 26.8687 36.4041 26.9333 36.3009C26.998 36.1976 27.041 36.0828 27.0597 35.9632C27.0784 35.8435 27.0725 35.7215 27.0424 35.6041C27.0122 35.4867 26.9584 35.3763 26.8841 35.2794L21.6928 28.2676Z" fill="white"/>
</g>
<rect x="0.5" y="0.5" width="85" height="85" rx="42.5" stroke="#EC2027"/>
<defs>
<clipPath id="clip0_207_440">
<rect width="47" height="42" fill="white" transform="translate(20 20)"/>
</clipPath>
</defs>
</svg>
