<svg id="Capa_1" enable-background="new 0 0 80 80" height="80" viewBox="0 0 80 80" width="80" xmlns="http://www.w3.org/2000/svg"><g><path d="m436.667 373.842c-41.539 0-75.333 33.794-75.333 75.333v62.062h150.666v-62.062c0-41.539-33.794-75.333-75.333-75.333z"/><path d="m75.333 373.842c-41.539 0-75.333 33.794-75.333 75.333v62.062h150.667v-62.062c0-41.539-33.795-75.333-75.334-75.333z"/><path d="m256 373.842c-41.539 0-75.333 33.794-75.333 75.333v62.062h150.667v-62.062c-.001-41.539-33.795-75.333-75.334-75.333z"/><path d="m241 .763h30v45h-30z"/><path d="m168.844 12.191h30v45h-30z" transform="matrix(.951 -.309 .309 .951 -1.723 58.507)"/><path d="m103.752 45.358h30v45h-30z" transform="matrix(.809 -.588 .588 .809 -17.206 82.761)"/><path d="m52.094 97.015h30v45h-30z" transform="matrix(.588 -.809 .809 .588 -69.033 103.546)"/><path d="m18.928 162.108h30v45h-30z" transform="matrix(.309 -.951 .951 .309 -152.128 159.827)"/><path d="m0 241.763h45v30h-45z"/><path d="m467 241.763h45v30h-45z"/><path d="m455.572 169.608h45v30h-45z" transform="matrix(.951 -.309 .309 .951 -33.648 156.761)"/><path d="m422.405 104.515h45v30h-45z" transform="matrix(.809 -.588 .588 .809 14.721 284.337)"/><path d="m370.748 52.858h45v30h-45z" transform="matrix(.588 -.809 .809 .588 107.203 346.114)"/><path d="m305.655 19.691h45v30h-45z" transform="matrix(.309 -.951 .951 .309 193.758 336.066)"/><ellipse cx="165.667" cy="159.627" rx="36.802" ry="36.802" transform="matrix(.707 -.707 .707 .707 -64.351 163.898)"/><ellipse cx="346.333" cy="159.627" rx="36.803" ry="36.802" transform="matrix(.973 -.23 .23 .973 -27.41 83.842)"/><path d="m375.372 363.569c-3.536-8.138-5.508-17.106-5.508-26.53 0-31.677 22.169-58.255 51.802-65.083v-.193c0-41.539-33.794-75.333-75.333-75.333s-75.333 33.794-75.333 75.333v.193c29.633 6.828 51.803 33.406 51.803 65.083 0 9.425-1.972 18.394-5.509 26.532 11.69 8.392 21.6 19.113 29.04 31.484 7.439-12.371 17.349-23.093 29.038-31.486z"/><path d="m194.706 363.571c-3.537-8.138-5.509-17.108-5.509-26.532 0-31.677 22.17-58.255 51.803-65.083v-.193c0-41.539-33.794-75.333-75.333-75.333s-75.333 33.794-75.333 75.333v.193c29.633 6.828 51.802 33.406 51.802 65.083 0 9.424-1.972 18.392-5.508 26.53 11.689 8.393 21.599 19.115 29.039 31.486 7.439-12.371 17.35-23.092 29.039-31.484z"/><ellipse cx="256" cy="337.039" rx="36.803" ry="36.802" transform="matrix(.987 -.16 .16 .987 -50.682 45.359)"/><ellipse cx="75.333" cy="337.039" rx="36.803" ry="36.802" transform="matrix(.973 -.23 .23 .973 -75.421 26.324)"/><ellipse cx="436.667" cy="337.039" rx="36.802" ry="36.802" transform="matrix(.707 -.707 .707 .707 -110.426 407.486)"/></g></svg>